<?xml version="1.0" encoding="UTF-8" standalone="no"?>
<!-- Created with Inkscape (http://www.inkscape.org/) -->

<svg
   width="191.12491"
   height="32.76107"
   viewBox="0 2.7755576e-17 191.12491 32.761069"
   version="1.1"
   id="svg55408"
   inkscape:version="1.1.1 (3bf5ae0d25, 2021-09-20)"
   sodipodi:docname="dessin.svg"
   xmlns:inkscape="http://www.inkscape.org/namespaces/inkscape"
   xmlns:sodipodi="http://sodipodi.sourceforge.net/DTD/sodipodi-0.dtd"
   xmlns="http://www.w3.org/2000/svg"
   xmlns:svg="http://www.w3.org/2000/svg">
  <g
     inkscape:label="Calque 1"
     inkscape:groupmode="layer"
     id="layer1"
     transform="translate(-2.4208521,-1.7983093)">
    <g
       aria-label="RathList !"
       transform="matrix(0.26458333,0,0,0.26458333,0.72087379,-12.975728)"
       id="text59592"
       style="font-size:192px;line-height:1.25;white-space:pre;shape-inside:url(#rect59594)">
      <path
         d="m 107.31033,175.6824 q 0,0.59244 -1.6927,0.84635 -3.21614,0.50781 -16.165335,0.50781 -11.087217,0 -15.065074,-0.50781 -1.861976,-0.25391 -2.115881,-0.42318 -0.507812,-0.2539 -1.184894,-1.6927 -1.269529,-3.30078 -3.723951,-9.81769 -3.300775,-8.46353 -10.3255,-24.9674 -1.523435,-3.30077 -7.024726,-3.63932 2.539057,0.16927 -8.717431,0.16927 -1.269529,0 -1.269529,4.3164 0,5.7552 1.015623,17.18096 1.100259,11.42576 1.100259,17.18095 0,1.4388 -0.761718,1.69271 -1.184893,0.0846 -2.369787,0.16927 -4.99348,0.33854 -15.572886,0.33854 -12.102841,0 -14.5572628,-0.50781 -2.4544223,-0.50781 -2.4544223,-2.62369 0,-9.30988 0.8463525,-28.09891 0.9309878,-18.78902 0.9309878,-28.18354 0,-35.800706 -1.6080698,-55.85926 l -0.084635,-1.184894 q -0.084635,-1.438799 2.6236927,-1.946611 2.7929629,-0.507811 25.8983859,-1.015623 15.657522,-0.338541 24.967399,-0.338541 19.296837,0 31.484313,8.717431 13.795549,9.817689 13.795549,28.352809 0,12.356749 -3.55468,19.720009 -3.554684,7.36327 -13.118467,14.30336 -1.946611,1.35417 -1.946611,2.53906 0,-0.0846 10.325501,21.24345 10.325497,21.32808 10.325497,23.5286 z M 71.763528,99.764577 q 0,-10.325501 -6.77082,-14.303357 -5.247385,-3.046869 -16.419238,-3.046869 -8.040349,0 -8.548161,2.454422 -0.507811,2.877598 -0.507811,16.588507 0,1.94661 0.08463,5.7552 0.08463,3.80859 0.08463,5.67056 0,0.42318 2.708328,0.84635 5.162751,0.76172 10.833312,0.76172 18.53512,0 18.53512,-14.726533 z"
         style="font-size:173.333px;font-family:'Berlin Sans FB Demi';-inkscape-font-specification:'Berlin Sans FB Demi, Normal'"
         id="path23893" />
      <path
         d="m 201.3401,134.21112 q 0,6.51692 0.76172,19.38148 0.76171,12.86455 0.76171,19.29683 0,3.38541 -2.96223,3.63932 -10.49477,0.76172 -24.03641,0.76172 -1.60807,0 -2.20052,-4.82421 -0.50781,-4.90885 -1.26953,-4.99348 -0.67708,0.33854 -1.77734,1.4388 -9.47914,9.56378 -20.31246,9.56378 -16.50387,0 -27.33718,-13.03383 -10.24087,-12.18747 -10.24087,-29.11452 0,-19.55075 10.57941,-31.48432 11.00258,-12.356745 30.13015,-12.356745 13.28773,0 20.98954,9.309875 0.33854,0.42318 0.59245,0.42318 0.76171,0 1.6927,-4.062493 1.01562,-4.147127 2.36979,-4.147127 3.1315,0 11.93357,1.77734 8.37889,1.692705 12.0182,2.877599 1.26953,0.507811 1.26953,1.354161 0,0.33854 -0.2539,1.77734 -2.70833,15.31898 -2.70833,32.4153 z m -27.25255,0.50782 q 0,-7.194 -4.5703,-11.84894 -4.48567,-4.73957 -11.7643,-4.73957 -7.27864,0 -11.7643,4.65494 -4.48567,4.65493 -4.48567,11.93357 0,6.85545 4.73957,11.7643 4.73958,4.90884 11.5104,4.90884 7.19399,0 11.7643,-4.65494 4.5703,-4.73957 4.5703,-12.0182 z"
         style="font-size:173.333px;font-family:'Berlin Sans FB Demi';-inkscape-font-specification:'Berlin Sans FB Demi, Normal'"
         id="path23895" />
      <path
         d="m 274.8035,151.73062 q 0,2.53906 -0.67708,7.70181 -0.59244,5.16275 -0.59244,7.61717 0,2.36979 -0.50782,3.04687 -0.50781,0.67708 -2.79296,1.94661 -10.91795,6.0091 -24.20568,6.0091 -24.45959,0 -24.45959,-18.70439 0,-5.58592 0.42318,-16.75778 0.42317,-11.25648 0.42317,-16.84241 0,-3.72395 -4.31639,-3.72395 -0.33854,0 -1.10026,0 -0.76172,0.0846 -1.10026,0.0846 -3.21614,0 -3.21614,-2.28515 0,-1.35416 0.16927,-4.14713 0.25391,-2.79296 0.25391,-4.14712 0,-1.77734 -0.25391,-5.41666 -0.16927,-3.63932 -0.16927,-5.41666 0,-1.6927 5.41666,-1.861971 3.04687,-0.08464 3.30077,-1.692705 0.50781,-3.216139 0.33854,-10.15623 -0.33854,-10.917947 -0.33854,-10.410136 0,-9.817689 1.86198,-9.817689 2.28515,0 6.51691,1.015623 4.82421,1.100259 6.68619,1.269529 4.31639,0.592447 13.03382,1.60807 2.11589,0.16927 2.11589,1.438799 0,3.38541 -0.59245,10.240865 -0.50781,6.855456 -0.50781,10.325501 0,4.147127 2.45442,4.147127 2.96223,0 8.97134,-0.253906 6.0091,-0.253905 9.05597,-0.253905 1.86197,0 1.86197,1.269528 0,1.946611 -0.42317,5.83983 -0.42318,3.89322 -0.42318,5.83983 0,2.03125 0.0846,5.92447 0.0846,3.89322 0.0846,5.92447 0,1.77734 -2.45442,1.77734 -1.69271,0 -5.67056,-0.0846 -3.97786,-0.16928 -5.67056,-0.16928 h -6.34765 q -1.26953,0 -1.26953,3.72396 0,2.03124 0,6.0091 0.0846,4.06249 0.0846,6.0091 0,7.10936 1.60807,9.81769 2.28515,3.63932 8.97133,3.63932 2.11589,0 6.00911,-0.93099 3.97785,-1.01562 5.58592,-1.01562 1.77734,0 1.77734,1.86197 z"
         style="font-size:173.333px;font-family:'Berlin Sans FB Demi';-inkscape-font-specification:'Berlin Sans FB Demi, Normal'"
         id="path23897" />
      <path
         d="m 368.15619,115.16819 -0.16927,58.39833 q 0,2.96223 -2.36979,3.30077 -2.70832,0.33854 -12.35674,0.33854 -9.30988,0 -12.9492,-0.67708 -2.79296,-0.50781 -2.79296,-3.63932 0,-7.27863 0.25391,-21.92053 0.2539,-14.64189 0.2539,-21.92053 0,-9.90232 -10.07159,-9.90232 -3.38541,0 -7.95572,2.70833 -4.99348,2.96223 -4.99348,6.17837 v 20.90491 q 0,4.06249 0.16928,12.27211 0.16927,8.12498 0.16927,12.18747 0,3.13151 -2.6237,3.47005 -2.62369,0.33854 -14.72653,0.33854 -6.94009,0 -9.98696,-0.67708 -3.04687,-0.67708 -3.04687,-2.96223 0,-6.68619 0.0846,-20.05856 0.0846,-13.457 0.0846,-20.14319 0,-27.67573 -0.59245,-45.787669 -0.2539,-6.347644 -0.42317,-12.695288 -0.42318,-7.363266 -1.52344,-12.610652 -0.2539,-1.100258 -0.2539,-1.60807 0,-1.269528 1.26953,-1.692705 2.62369,-0.761717 7.7018,-0.930987 6.77082,-0.253906 7.87108,-0.423177 15.31898,-1.77734 15.31898,-1.77734 1.35417,0 1.35417,1.77734 0,2.708328 -0.33854,7.363267 -0.33854,5.416656 -0.33854,7.363267 -0.50782,19.127566 -0.50782,30.214784 0,1.69271 0.84636,1.69271 0.16927,0 4.31639,-2.96224 4.90885,-3.470044 9.39452,-5.50129 6.68618,-2.962234 12.94919,-2.962234 10.83331,0 18.11194,5.670562 7.87108,6.093742 7.87108,16.673142 z"
         style="font-size:173.333px;font-family:'Berlin Sans FB Demi';-inkscape-font-specification:'Berlin Sans FB Demi, Normal'"
         id="path23899" />
      <path
         d="m 460.32396,177.96755 q -7.27863,0 -18.9583,-0.33854 -15.23434,-0.33854 -18.95829,-0.42318 l -25.30594,-0.33854 q -3.80859,0.0846 -10.91795,-0.33854 -2.45442,-0.42318 -2.45442,-2.62369 0,-9.22525 0.2539,-27.5911 0.33854,-18.45048 0.33854,-27.67572 0,-9.81769 -0.59244,-29.368434 -0.59245,-19.635378 -0.59245,-29.453067 0,-1.861976 2.53906,-1.861976 2.53906,0 7.53254,0.253906 5.07811,0.253906 7.53253,0.253906 2.79297,0 8.29426,-0.253906 5.50129,-0.338541 8.29425,-0.338541 1.26953,0 1.1849,1.60807 l -0.0846,1.100258 q -1.01562,15.911427 -2.28515,47.818914 l -0.0846,22.34371 q 0,10.83331 0.0846,15.82679 0.0846,1.01562 0.16927,2.03125 0.0846,1.01562 1.26953,1.26953 0.0846,0 2.20051,0 7.61718,0 22.76689,-0.76172 15.23434,-0.84635 22.85151,-0.84635 2.28516,0 2.28516,1.94661 0,14.47262 -2.11589,24.96739 -0.42317,2.20052 -1.77734,2.6237 -0.42317,0.16927 -3.47004,0.16927 z"
         style="font-size:173.333px;font-family:'Berlin Sans FB Demi';-inkscape-font-specification:'Berlin Sans FB Demi, Normal'"
         id="path23901" />
      <path
         d="m 510.25875,74.797178 q 0,14.726534 -16.58851,14.726534 -7.10936,0 -11.7643,-3.723951 -5.07811,-4.062492 -5.07811,-11.002583 0,-6.601549 5.24738,-10.833312 4.82421,-3.893221 11.59503,-3.893221 6.60155,0 11.42576,3.977856 5.16275,4.231763 5.16275,10.748677 z m -2.20052,62.883992 q 0,6.17837 0.25391,18.45048 0.2539,12.18748 0.2539,18.28122 0,1.77734 -2.11588,2.11588 -2.8776,0.50781 -12.94919,0.50781 -10.15623,0 -13.03383,-0.50781 -1.86197,-0.33854 -2.28515,-1.10026 -0.16927,-0.33854 -0.16927,-2.53906 0,-5.83983 0.25391,-17.51949 0.2539,-11.7643 0.2539,-17.68877 0,-24.03641 -1.86197,-38.255134 -0.16928,-1.354164 -0.16928,-1.77734 0,-1.692705 2.28516,-1.692705 2.36978,0 7.19399,0.507811 4.90885,0.507812 7.36327,0.507812 2.45442,0 7.36327,-0.423177 4.90884,-0.423176 7.36326,-0.423176 2.03125,0 2.03125,1.692705 0,0.338541 -0.16927,1.60807 -1.86198,16.503874 -1.86198,38.255134 z"
         style="font-size:173.333px;font-family:'Berlin Sans FB Demi';-inkscape-font-specification:'Berlin Sans FB Demi, Normal'"
         id="path23903" />
      <path
         d="m 573.90447,108.05883 q 0,0.84635 -1.26953,2.28515 -2.36979,-0.59244 -4.73957,-0.59244 -4.99348,0 -8.37889,2.20051 -4.06249,2.53906 -4.06249,7.194 0,2.96223 4.31639,7.53254 6.51692,6.85545 8.04035,9.22524 4.3164,6.43228 4.3164,13.79554 0,4.3164 -1.69271,9.14061 -1.94661,5.33202 -4.90884,7.78644 -6.26301,5.41666 -14.6419,9.14061 -9.05597,3.89322 -16.67314,3.89322 -1.69271,0 -7.61717,-9.1406 -5.83984,-9.22525 -5.83984,-11.25649 0,-0.76172 0.93099,-0.93099 5.92447,-1.10026 11.93357,-2.20052 7.4479,-2.36978 7.4479,-7.78644 0,-3.72395 -4.31639,-8.63279 -7.70181,-8.54817 -8.04035,-9.05598 -4.3164,-6.09373 -4.3164,-12.86455 0,-12.69529 12.86456,-21.581994 11.51039,-7.871078 24.62885,-7.871078 1.35417,0 6.68619,9.140607 5.33202,9.055975 5.33202,10.579405 z"
         style="font-size:173.333px;font-family:'Berlin Sans FB Demi';-inkscape-font-specification:'Berlin Sans FB Demi, Normal'"
         id="path23905" />
      <path
         d="m 642.71293,151.73062 q 0,2.53906 -0.67708,7.70181 -0.59245,5.16275 -0.59245,7.61717 0,2.36979 -0.50781,3.04687 -0.50781,0.67708 -2.79297,1.94661 -10.91794,6.0091 -24.20568,6.0091 -24.45958,0 -24.45958,-18.70439 0,-5.58592 0.42317,-16.75778 0.42318,-11.25648 0.42318,-16.84241 0,-3.72395 -4.3164,-3.72395 -0.33854,0 -1.10026,0 -0.76172,0.0846 -1.10026,0.0846 -3.21614,0 -3.21614,-2.28515 0,-1.35416 0.16927,-4.14713 0.25391,-2.79296 0.25391,-4.14712 0,-1.77734 -0.25391,-5.41666 -0.16927,-3.63932 -0.16927,-5.41666 0,-1.6927 5.41666,-1.861971 3.04687,-0.08464 3.30078,-1.692705 0.50781,-3.216139 0.33854,-10.15623 -0.33854,-10.917947 -0.33854,-10.410136 0,-9.817689 1.86197,-9.817689 2.28515,0 6.51691,1.015623 4.82421,1.100259 6.68619,1.269529 4.3164,0.592447 13.03383,1.60807 2.11588,0.16927 2.11588,1.438799 0,3.38541 -0.59245,10.240865 -0.50781,6.855456 -0.50781,10.325501 0,4.147127 2.45442,4.147127 2.96224,0 8.97134,-0.253906 6.0091,-0.253905 9.05597,-0.253905 1.86198,0 1.86198,1.269528 0,1.946611 -0.42318,5.83983 -0.42318,3.89322 -0.42318,5.83983 0,2.03125 0.0846,5.92447 0.0846,3.89322 0.0846,5.92447 0,1.77734 -2.45443,1.77734 -1.6927,0 -5.67056,-0.0846 -3.97786,-0.16928 -5.67056,-0.16928 h -6.34764 q -1.26953,0 -1.26953,3.72396 0,2.03124 0,6.0091 0.0846,4.06249 0.0846,6.0091 0,7.10936 1.60807,9.81769 2.28515,3.63932 8.97134,3.63932 2.11588,0 6.0091,-0.93099 3.97786,-1.01562 5.58593,-1.01562 1.77734,0 1.77734,1.86197 z"
         style="font-size:173.333px;font-family:'Berlin Sans FB Demi';-inkscape-font-specification:'Berlin Sans FB Demi, Normal'"
         id="path23907" />
      <path
         d="m 728.78699,78.267223 q 0,15.403616 -2.79297,28.945257 -3.38541,13.88018 -6.68618,27.67573 -0.76172,3.1315 -6.77082,3.1315 -6.85546,0 -7.61717,-2.70833 -7.95572,-27.16791 -7.95572,-30.89186 0,-3.47005 0.33854,-10.325505 0.33855,-6.855455 0.33855,-10.3255 0,-3.808587 -0.25391,-11.425759 -0.25391,-7.617173 -0.25391,-11.425759 0,-3.131504 1.52344,-3.131504 2.36979,0 7.10936,0.338541 4.73957,0.338541 7.10936,0.338541 2.36979,0 7.10936,-0.338541 4.73958,-0.338541 7.10936,-0.338541 1.69271,0 1.69271,20.48173 z m 0,83.873537 q 0,7.10936 -4.40104,11.84893 -4.40103,4.65494 -11.51039,4.65494 -7.194,0 -11.59503,-4.65494 -4.3164,-4.65494 -4.3164,-11.84893 0,-7.10936 4.40104,-11.67967 4.40103,-4.5703 11.51039,-4.5703 7.02473,0 11.42576,4.5703 4.48567,4.57031 4.48567,11.67967 z"
         style="font-size:173.333px;font-family:'Berlin Sans FB Demi';-inkscape-font-specification:'Berlin Sans FB Demi, Normal'"
         id="path23909" />
    </g>
  </g>
</svg>
